<?xml version="1.0" encoding="UTF-8"?>
<!DOCTYPE svg PUBLIC "-//W3C//DTD SVG 1.1//EN" "http://www.w3.org/Graphics/SVG/1.1/DTD/svg11.dtd">
<svg version="1.1" xmlns="http://www.w3.org/2000/svg" xmlns:xlink="http://www.w3.org/1999/xlink" x="0" y="0" width="128" height="128" viewBox="0, 0, 128, 128">
  <g id="Background">
    <rect x="0" y="0" width="128" height="128" fill="#000000" fill-opacity="0"/>
  </g>
  <g id="Layer_1">
    <path d="M70.776,4 C88.846,4.038 105.764,12.235 117.224,26.123 L96.125,47.222 C90.385,38.166 81.231,33.992 70.776,33.464 C53.912,33.464 40.24,47.136 40.24,64 C40.24,80.864 53.912,94.536 70.776,94.536 C81.182,94.434 90.346,89.336 96.125,80.778 L117.224,101.877 C105.928,116.133 88.714,123.546 70.776,124 C37.639,124 10.776,97.137 10.776,64 C10.776,30.863 37.639,4 70.776,4 z" fill="#000000" fill-opacity="0.2"/>
    <path d="M70.776,33.464 C81.182,33.566 90.347,38.664 96.125,47.222 L86.345,57.002 C85.67,55.403 86.087,56.181 85.074,54.68 C84.441,53.663 84.737,54.034 84.276,53.499 C83.863,52.887 84.119,53.21 83.47,52.562 C82.721,51.691 83.127,52.098 82.25,51.342 C81.561,50.653 81.903,50.922 81.262,50.489 C80.953,50.223 81.145,50.369 80.663,50.085 C78.684,48.749 79.583,49.195 78.07,48.556 C77.886,48.447 77.988,48.493 77.762,48.425 C75.116,47.308 76.543,47.764 73.455,47.135 C73.199,47.058 73.323,47.08 73.086,47.059 C71.956,46.829 72.718,46.955 70.776,46.857 C61.308,46.857 53.633,54.532 53.633,64 C53.633,73.468 61.308,81.143 70.776,81.143 C74.628,81.136 77.548,80.018 80.687,77.899 C81.173,77.621 80.965,77.771 81.325,77.468 C81.828,77.128 81.579,77.329 82.059,76.849 C83.271,75.828 82.678,76.405 83.813,75.095 C84.042,74.867 83.954,74.979 84.094,74.772 C84.907,73.833 84.405,74.466 85.449,72.764 C86.087,71.819 85.757,72.391 86.345,70.998 L96.125,80.778 C90.385,89.834 81.231,94.008 70.776,94.536 C53.912,94.536 40.24,80.864 40.24,64 C40.24,47.136 53.912,33.464 70.776,33.464 z" fill="#000000" fill-opacity="0.45"/>
    <path d="M87.919,63.995 L87.919,64 C87.816,66.217 87.978,65.287 87.613,66.816 C87.947,65.18 87.812,66.114 87.919,64 L87.919,63.995 z" fill="#000000" fill-opacity="0.6"/>
    <path d="M86.347,57.006 C87.085,58.698 86.951,58.075 87.092,58.769 L86.347,57.006 z" fill="#000000" fill-opacity="0.6"/>
  </g>
</svg>
