<?xml version="1.0" encoding="UTF-8"?>
<!DOCTYPE svg PUBLIC "-//W3C//DTD SVG 1.1//EN" "http://www.w3.org/Graphics/SVG/1.1/DTD/svg11.dtd">
<svg version="1.1" xmlns="http://www.w3.org/2000/svg" xmlns:xlink="http://www.w3.org/1999/xlink" x="0" y="0" width="128" height="128" viewBox="0, 0, 128, 128">
  <g id="Background">
    <rect x="0" y="0" width="128" height="128" fill="#000000" fill-opacity="0"/>
  </g>
  <g id="Layer_1">
    <path d="M70.84,4 C88.803,4.054 105.748,12.14 117.16,25.968 L85.457,57.672 C83.058,51.595 77.132,48.318 70.839,48 C62.003,48 54.84,55.163 54.84,64 C54.84,72.837 62.003,80 70.84,80 C77.212,79.893 82.964,76.23 85.457,70.328 L117.16,102.031 C105.888,116.204 88.69,123.549 70.84,124 C37.703,124 10.84,97.137 10.84,64 C10.84,30.863 37.703,4 70.84,4 z" fill="#000000" fill-opacity="0.45"/>
    <path d="M70.84,34 C81.01,34.107 90.034,39.061 95.691,47.438 L85.457,57.672 C83.058,51.595 77.133,48.318 70.84,48 C62.003,48 54.84,55.163 54.84,64 C54.84,72.837 62.003,80 70.84,80 C77.212,79.893 82.964,76.231 85.457,70.328 L95.691,80.562 C90.065,89.414 81.06,93.484 70.84,94 C54.271,94 40.84,80.569 40.84,64 C40.84,47.431 54.271,34 70.84,34 z" fill="#000000" fill-opacity="0.55"/>
  </g>
</svg>
